<svg xmlns="http://www.w3.org/2000/svg" viewBox="0 0 512 512" style="height: 512px; width: 512px;"><path d="M0 0h512v512H0z" fill="#000" fill-opacity="1"></path><g class="" transform="translate(0,0)" style=""><path d="M378.744 133.25c-238.248 24.048-68.733 98.574 81.488 161.753-254.586-53.513-69.623 96.14 22.624 194.884-97.054-61.694-215.83-120.378-320.06-142.827 234.825-17.035 26.77-138.346-134.27-172.088 185.74-1.445 164.326-12.097 8.96-152.757 131.684 75.394 215.833 97.65 341.26 111.038z" fill="#fff" fill-opacity="1"></path></g><g class="" transform="translate(365,-17)" style=""><g transform="translate(16, 16) scale(0.5, 0.5) rotate(0, 128, 128)"><circle cx="128" cy="128" r="128" fill="#000" fill-opacity="1"></circle><circle stroke="#fff" stroke-opacity="1" fill="#000" fill-opacity="1" stroke-width="18" cx="128" cy="128" r="101"></circle><path fill="#fff" fill-opacity="1" d="M119 64v55H64v18h55v55h18v-55h55v-18h-55V64h-18z"></path></g></g><g font-family="Arial, Helvetica, sans-serif" font-size="120" font-style="normal" font-weight="bold" text-anchor="middle" text-decoration=" rgba(255, 255, 255, 1)" class="" transform="translate(142,494)" style=""><g><text stroke="rgba(0, 0, 0, 1)" stroke-width="30"><tspan x="0" y="0">CRIT</tspan></text><text fill="rgba(255, 255, 255, 1)"><tspan x="0" y="0">CRIT</tspan></text></g></g></svg>